This XML file does not appear to have any style information associated with it. The document tree is shown below.
<mxfile host="app.diagrams.net">
<diagram name="Modelo ER">
<mxGraphModel>
<root>
<mxCell id="0"/>
<mxCell id="1" parent="0"/>
<mxCell id="bdea31a0-79fc-431b-a8be-eab1aa5a0245" value="Usuari id username email password data_registre rol" style="shape=swimlane;" vertex="1" parent="1">
<mxGeometry x="20" y="20" width="200" height="180" as_="geometry"/>
</mxCell>
<mxCell id="fcc7f128-11f9-4f43-8068-f4acd4d42788" value="Perfil id usuari_id avatar descripcio ciutat" style="shape=swimlane;" vertex="1" parent="1">
<mxGeometry x="240" y="20" width="200" height="180" as_="geometry"/>
</mxCell>
<mxCell id="e3886ef3-0381-4c94-b32a-efc187c0cc38" value="Joc id nom" style="shape=swimlane;" vertex="1" parent="1">
<mxGeometry x="460" y="20" width="200" height="180" as_="geometry"/>
</mxCell>
<mxCell id="bbb2125a-cfae-4133-908e-8bd7193231bb" value="EstilJoc id nom" style="shape=swimlane;" vertex="1" parent="1">
<mxGeometry x="680" y="20" width="200" height="180" as_="geometry"/>
</mxCell>
<mxCell id="8f25fba0-22dc-4e92-a642-90646e4fcaef" value="Experiencia id nivell" style="shape=swimlane;" vertex="1" parent="1">
<mxGeometry x="900" y="20" width="200" height="180" as_="geometry"/>
</mxCell>
<mxCell id="e5bb9a78-95bc-458c-8dd3-8c86f25cdf9e" value="Perfil_Joc perfil_id joc_id" style="shape=swimlane;" vertex="1" parent="1">
<mxGeometry x="20" y="220" width="200" height="180" as_="geometry"/>
</mxCell>
<mxCell id="5cf803cb-a2cf-4118-91bf-13508856e07d" value="Perfil_Estil perfil_id estil_id" style="shape=swimlane;" vertex="1" parent="1">
<mxGeometry x="240" y="220" width="200" height="180" as_="geometry"/>
</mxCell>
<mxCell id="53935901-9b5a-4b7e-b967-be2aefa668b4" value="Perfil_Experiencia perfil_id experiencia_id" style="shape=swimlane;" vertex="1" parent="1">
<mxGeometry x="460" y="220" width="200" height="180" as_="geometry"/>
</mxCell>
<mxCell id="fd757440-6990-4ef0-ae04-b9199714b2b4" value="Partida id creador_id joc_id modalitat_id ubicacio duracio_id max_jugadors estat descripcio data_partida data_creacio" style="shape=swimlane;" vertex="1" parent="1">
<mxGeometry x="680" y="220" width="200" height="180" as_="geometry"/>
</mxCell>
<mxCell id="ae0961bb-9cbe-4ced-87ee-fb9204096793" value="Duracio id sessions" style="shape=swimlane;" vertex="1" parent="1">
<mxGeometry x="900" y="220" width="200" height="180" as_="geometry"/>
</mxCell>
<mxCell id="09f55af9-bcb4-4a9e-af02-c8d2b98a423d" value="Participant id jugador_id partida_id estat data_solicitut" style="shape=swimlane;" vertex="1" parent="1">
<mxGeometry x="20" y="420" width="200" height="180" as_="geometry"/>
</mxCell>
<mxCell id="bf1f3f95-6f43-4ee9-8537-5802ff65c40b" value="Match id jugador_id partida_id interÃ¨s_jugador seleccionat_per_gm data_match" style="shape=swimlane;" vertex="1" parent="1">
<mxGeometry x="240" y="420" width="200" height="180" as_="geometry"/>
</mxCell>
<mxCell id="e73294ef-8134-401e-ae53-b0360bfdc869" value="Missatge id remitent_id destinatari_id contingut data_enviament partida_id" style="shape=swimlane;" vertex="1" parent="1">
<mxGeometry x="460" y="420" width="200" height="180" as_="geometry"/>
</mxCell>
<mxCell id="6e34df8e-80c3-4ef0-95c3-cabdce081ec0" value="Chat id partida_id nom" style="shape=swimlane;" vertex="1" parent="1">
<mxGeometry x="680" y="420" width="200" height="180" as_="geometry"/>
</mxCell>
<mxCell id="b9517608-9b57-46f6-b655-8f5014a17d65" value="Chat_Missatge id chat_id remitent_id contingut data_enviament" style="shape=swimlane;" vertex="1" parent="1">
<mxGeometry x="900" y="420" width="200" height="180" as_="geometry"/>
</mxCell>
<mxCell id="701dbcb8-559c-491f-b9a3-176abacc85a2" value="Modalitat id nom" style="shape=swimlane;" vertex="1" parent="1">
<mxGeometry x="20" y="620" width="200" height="180" as_="geometry"/>
</mxCell>
<mxCell id="d632a099-9dd1-4635-b273-bdbc7f6780e7" value="Perfil_Modalitat perfil_id modalitat_id" style="shape=swimlane;" vertex="1" parent="1">
<mxGeometry x="240" y="620" width="200" height="180" as_="geometry"/>
</mxCell>
</root>
</mxGraphModel>
</diagram>
</mxfile>
